<svg width="19" height="15" viewBox="0 0 19 15" fill="none" xmlns="http://www.w3.org/2000/svg">
<path d="M14.9888 14.5234L18.6729 10.7368C18.856 10.5537 18.9731 10.2754 18.9731 10.0264C18.9731 9.4624 18.5703 9.05957 18.0063 9.05957C17.7354 9.05957 17.5083 9.14746 17.3252 9.33789L15.8384 10.8833L15.2085 11.623L15.2451 10.2754V1.57422C15.2451 1.01025 14.8276 0.592773 14.2637 0.592773C13.707 0.592773 13.2896 1.01025 13.2896 1.57422V10.2754L13.3262 11.623L12.6963 10.8833L11.2095 9.33789C11.0264 9.14746 10.792 9.05957 10.5283 9.05957C9.96436 9.05957 9.56152 9.4624 9.56152 10.0264C9.56152 10.2754 9.67871 10.5537 9.86182 10.7368L13.5459 14.5234C13.9414 14.9409 14.5859 14.9482 14.9888 14.5234ZM4.85205 0.915039L1.16797 4.69434C0.984863 4.87744 0.867676 5.14844 0.867676 5.39746C0.867676 5.96875 1.27051 6.37158 1.83447 6.37158C2.10547 6.37158 2.33252 6.27637 2.51562 6.09326L4.00244 4.54053L4.63232 3.80811L4.5957 5.15576V13.8569C4.5957 14.4209 5.01318 14.8384 5.57715 14.8384C6.13379 14.8384 6.55127 14.4209 6.55127 13.8569V5.15576L6.51465 3.80811L7.14453 4.54053L8.63135 6.09326C8.81445 6.27637 9.0415 6.37158 9.3125 6.37158C9.87646 6.37158 10.2793 5.96875 10.2793 5.39746C10.2793 5.14844 10.1621 4.87744 9.979 4.69434L6.29492 0.915039C5.89209 0.490234 5.25488 0.490234 4.85205 0.915039Z" fill="#383A69"/>
</svg>
